<svg id="visual" viewBox="0 0 1000 150" width="1000" height="150" xmlns="http://www.w3.org/2000/svg" xmlns:xlink="http://www.w3.org/1999/xlink" version="1.1">
    <path d="M0 48L33.3 43.7C66.7 39.3 133.3 30.7 200 31.8C266.7 33 333.3 44 400 42.3C466.7 40.7 533.3 26.3 600 21.2C666.7 16 733.3 20 800 24.2C866.7 28.3 933.3 32.7 966.7 34.8L1000 37L1000 0L966.7 0C933.3 0 866.7 0 800 0C733.3 0 666.7 0 600 0C533.3 0 466.7 0 400 0C333.3 0 266.7 0 200 0C133.3 0 66.7 0 33.3 0L0 0Z" fill="#608bc1"></path>
    <path d="M0 96L33.3 93C66.7 90 133.3 84 200 87.5C266.7 91 333.3 104 400 103.7C466.7 103.3 533.3 89.7 600 85.7C666.7 81.7 733.3 87.3 800 85C866.7 82.7 933.3 72.3 966.7 67.2L1000 62L1000 35L966.7 32.8C933.3 30.7 866.7 26.3 800 22.2C733.3 18 666.7 14 600 19.2C533.3 24.3 466.7 38.7 400 40.3C333.3 42 266.7 31 200 29.8C133.3 28.7 66.7 37.3 33.3 41.7L0 46Z" fill="#98b0d6" opacity="0.8"></path>
    <path d="M0 118L33.3 115.7C66.7 113.3 133.3 108.7 200 111.2C266.7 113.7 333.3 123.3 400 125.5C466.7 127.7 533.3 122.3 600 121.8C666.7 121.3 733.3 125.7 800 118.7C866.7 111.7 933.3 93.3 966.7 84.2L1000 75L1000 60L966.7 65.2C933.3 70.3 866.7 80.7 800 83C733.3 85.3 666.7 79.7 600 83.7C533.3 87.7 466.7 101.3 400 101.7C333.3 102 266.7 89 200 85.5C133.3 82 66.7 88 33.3 91L0 94Z" fill="#ccd7ea" opacity="0.7"></path>
    <path d="M0 151L33.3 151C66.7 151 133.3 151 200 151C266.7 151 333.3 151 400 151C466.7 151 533.3 151 600 151C666.7 151 733.3 151 800 151C866.7 151 933.3 151 966.7 151L1000 151L1000 73L966.7 82.2C933.3 91.3 866.7 109.7 800 116.7C733.3 123.7 666.7 119.3 600 119.8C533.3 120.3 466.7 125.7 400 123.5C333.3 121.3 266.7 111.7 200 109.2C133.3 106.7 66.7 111.3 33.3 113.7L0 116Z" fill="#ffffff" opacity="0.6"></path>
</svg>