<svg id="visual" viewBox="0 0 1000 70" width="1000" height="70" xmlns="http://www.w3.org/2000/svg" xmlns:xlink="http://www.w3.org/1999/xlink" version="1.1"><path d="M0 35L27.8 36.8C55.7 38.7 111.3 42.3 166.8 44.3C222.3 46.3 277.7 46.7 333.2 43.3C388.7 40 444.3 33 500 31.2C555.7 29.3 611.3 32.7 666.8 33.7C722.3 34.7 777.7 33.3 833.2 33.5C888.7 33.7 944.3 35.3 972.2 36.2L1000 37L1000 12L972.2 11.2C944.3 10.3 888.7 8.7 833.2 9.3C777.7 10 722.3 13 666.8 13C611.3 13 555.7 10 500 9.7C444.3 9.3 388.7 11.7 333.2 11.7C277.7 11.7 222.3 9.3 166.8 8.2C111.3 7 55.7 7 27.8 7L0 7Z" fill="#b7b9d6"></path><path d="M0 46L27.8 47.7C55.7 49.3 111.3 52.7 166.8 56.2C222.3 59.7 277.7 63.3 333.2 64.2C388.7 65 444.3 63 500 62C555.7 61 611.3 61 666.8 58.7C722.3 56.3 777.7 51.7 833.2 52.2C888.7 52.7 944.3 58.3 972.2 61.2L1000 64L1000 35L972.2 34.2C944.3 33.3 888.7 31.7 833.2 31.5C777.7 31.3 722.3 32.7 666.8 31.7C611.3 30.7 555.7 27.3 500 29.2C444.3 31 388.7 38 333.2 41.3C277.7 44.7 222.3 44.3 166.8 42.3C111.3 40.3 55.7 36.7 27.8 34.8L0 33Z" fill="#6f78ae"></path><path d="M0 71L27.8 71C55.7 71 111.3 71 166.8 71C222.3 71 277.7 71 333.2 71C388.7 71 444.3 71 500 71C555.7 71 611.3 71 666.8 71C722.3 71 777.7 71 833.2 71C888.7 71 944.3 71 972.2 71L1000 71L1000 62L972.2 59.2C944.3 56.3 888.7 50.7 833.2 50.2C777.7 49.7 722.3 54.3 666.8 56.7C611.3 59 555.7 59 500 60C444.3 61 388.7 63 333.2 62.2C277.7 61.3 222.3 57.7 166.8 54.2C111.3 50.7 55.7 47.3 27.8 45.7L0 44Z" fill="#133e87"></path></svg>